<svg xmlns="http://www.w3.org/2000/svg" width="22.487" height="25.729" viewBox="0 0 22.487 25.729">
  <path id="Path_2233" data-name="Path 2233" d="M31.189,30.076c3.511,0,6.367-3.437,6.367-7.663,0-4-2.618-6.8-6.367-6.8s-6.367,2.8-6.367,6.8C24.823,26.639,27.679,30.076,31.189,30.076Zm0-12.966c2.913,0,4.87,2.131,4.87,5.3,0,3.4-2.185,6.167-4.87,6.167s-4.87-2.767-4.87-6.167C26.319,19.241,28.276,17.11,31.189,17.11Zm.69,14.462H30.5c-6.312,0-10.553,3.626-10.553,9.023a.748.748,0,1,0,1.5,0c0-5.555,4.879-7.526,9.057-7.526h1.38c4.179,0,9.058,1.972,9.058,7.526a.748.748,0,1,0,1.5,0C42.433,35.2,38.192,31.572,31.879,31.572Z" transform="translate(-19.946 -15.614)" opacity="0.7"/>
</svg>
