<svg xmlns="http://www.w3.org/2000/svg" width="19.891" height="25.005" viewBox="0 0 19.891 25.005">
  <path id="Path_2236" data-name="Path 2236" d="M35.678,16a.62.62,0,0,0-.6-.572H31.762V13.32a4.82,4.82,0,0,0-9.64,0v2.109H18.808a.619.619,0,0,0-.6.572L17,32.872a.74.74,0,0,0,.151.452.568.568,0,0,0,.452.181H36.281a.613.613,0,0,0,.452-.181.524.524,0,0,0,.151-.452ZM23.327,13.32a3.615,3.615,0,0,1,7.23,0v2.109h-7.23ZM18.235,32.3,19.35,16.634h2.772V20.55a.6.6,0,1,0,1.205,0V16.634h7.23V20.55a.6.6,0,1,0,1.205,0V16.634H34.5L35.618,32.3Z" transform="translate(-17 -8.5)" opacity="0.7"/>
</svg>
