<svg xmlns="http://www.w3.org/2000/svg" width="20.766" height="25.34" viewBox="0 0 20.766 25.34">
  <g id="Group_2454" data-name="Group 2454" transform="translate(0 0.25)" opacity="0.7">
    <g id="noun_food_cart_1448478" data-name="noun_food cart_1448478" transform="translate(6.666 0)">
      <g id="Group_2430" data-name="Group 2430" transform="translate(0 0)">
        <path id="Intersection_2" data-name="Intersection 2" d="M10.373,6.959V6.178H.456v.782H0V5.95a.228.228,0,0,1,.228-.228H.9A4.533,4.533,0,0,1,4.655,1.5.936.936,0,0,1,4.47.944a.945.945,0,1,1,1.7.556,4.533,4.533,0,0,1,3.75,4.221H10.6a.228.228,0,0,1,.228.228v1.01ZM1.36,5.722H9.468A4.076,4.076,0,0,0,5.446,1.886h-.01l-.022,0-.022,0H5.382A4.076,4.076,0,0,0,1.36,5.722ZM4.927.944a.488.488,0,0,0,.466.486h.044a.487.487,0,1,0-.51-.486Z" transform="translate(0)" stroke="#000" stroke-width="0.5"/>
      </g>
    </g>
    <g id="noun_cart_1431257" transform="translate(0 4.233)">
      <g id="Group">
        <path id="Compound_Path" data-name="Compound Path" d="M36.789,76.844a2.244,2.244,0,1,0-2.244,2.244A2.244,2.244,0,0,0,36.789,76.844Zm-3.523,0a.532.532,0,1,1-.024,0Z" transform="translate(-26.189 -58.232)"/>
        <path id="Compound_Path-2" data-name="Compound Path" d="M70.889,76.844a2.244,2.244,0,1,0-2.244,2.244,2.244,2.244,0,0,0,2.244-2.244Zm-3.523,0a1.279,1.279,0,1,1,1.279,1.279A1.279,1.279,0,0,1,67.365,76.844Z" transform="translate(-52.059 -58.232)"/>
        <path id="Compound_Path-3" data-name="Compound Path" d="M27.255,9.51H11.5l-.072-.434a2.413,2.413,0,0,0-2.027-2l-1.858-.29a.488.488,0,0,0-.145.965l1.858.265A1.448,1.448,0,0,1,10.458,9.22L12.1,19.6a2.872,2.872,0,0,0,2.872,2.462H26.1a.483.483,0,0,0,0-.965H14.971a1.931,1.931,0,0,1-1.907-1.641l-.121-.724h11a2.92,2.92,0,0,0,2.872-2.462l.917-6.2a.483.483,0,0,0-.483-.555Zm-1.4,6.613a1.931,1.931,0,0,1-1.907,1.641H12.8l-1.158-7.288H26.7Z" transform="translate(-6.977 -6.777)"/>
      </g>
    </g>
  </g>
</svg>
