<svg xmlns="http://www.w3.org/2000/svg" width="25.351" height="24.829" viewBox="0 0 25.351 24.829">
  <path id="Union_1" data-name="Union 1" d="M16.617,24.829a1.473,1.473,0,0,1-1.471-1.471V18.805a.669.669,0,0,0-.668-.669h-3.6a.669.669,0,0,0-.67.669v4.553a1.473,1.473,0,0,1-1.471,1.471H4.627a1.473,1.473,0,0,1-1.471-1.471v-8.84a.527.527,0,0,0-.527-.525H1.348A1.344,1.344,0,0,1,.38,11.715L10.927.745a2.425,2.425,0,0,1,3.5,0l10.549,10.97A1.345,1.345,0,0,1,24,13.993H22.721a.527.527,0,0,0-.527.525v8.84a1.473,1.473,0,0,1-1.471,1.471Z" fill="#ff5a30"/>
</svg>
