<svg xmlns="http://www.w3.org/2000/svg" width="19.333" height="13.837" viewBox="0 0 19.333 13.837">
  <g id="noun_back_2664580" transform="translate(-2 -5.96)">
    <g id="Group_383" data-name="Group 383" transform="translate(2 5.96)">
      <path id="Path_657" data-name="Path 657" d="M9.6,19.8a.69.69,0,0,1-.463-.18L2.229,13.4a.69.69,0,0,1,0-1.022l6.9-6.214a.69.69,0,1,1,.925,1.022l-6.339,5.7,6.339,5.7A.69.69,0,0,1,9.6,19.8Z" transform="translate(-2.001 -5.96)"/>
      <path id="Path_658" data-name="Path 658" d="M20.643,16.381H2.69A.69.69,0,0,1,2.69,15H20.643a.69.69,0,1,1,0,1.381Z" transform="translate(-2 -8.758)"/>
    </g>
  </g>
</svg>
