<svg xmlns="http://www.w3.org/2000/svg" width="12.75" height="12.771" viewBox="0 0 12.75 12.771">
  <g id="noun_filter_2678407" transform="translate(15.785 -10) rotate(90)">
    <g id="Layer_15" data-name="Layer 15" transform="translate(10 3.035)">
      <path id="Path_2190" data-name="Path 2190" d="M3.3,5.153H5.46a1.824,1.824,0,0,0,3.594,0h6.413a.3.3,0,0,0,0-.608H9.054a1.824,1.824,0,0,0-3.594,0H3.3a.3.3,0,1,0,0,.608Zm3.953-1.52A1.216,1.216,0,1,1,6.041,4.849,1.216,1.216,0,0,1,7.257,3.633Z" transform="translate(-3 -3.035)"/>
      <path id="Path_2191" data-name="Path 2191" d="M15.467,19.545H13.311a1.824,1.824,0,0,0-3.594,0H3.3a.3.3,0,1,0,0,.608H9.717a1.824,1.824,0,0,0,3.594,0h2.156a.3.3,0,1,0,0-.608Zm-3.953,1.52a1.216,1.216,0,1,1,1.216-1.216A1.216,1.216,0,0,1,11.514,21.065Z" transform="translate(-3 -13.474)"/>
      <path id="Path_2192" data-name="Path 2192" d="M15.467,34.545H9.054a1.824,1.824,0,0,0-3.594,0H3.3a.3.3,0,1,0,0,.608H5.46a1.824,1.824,0,0,0,3.594,0h6.413a.3.3,0,1,0,0-.608Zm-8.21,1.52a1.216,1.216,0,1,1,1.216-1.216A1.216,1.216,0,0,1,7.257,36.065Z" transform="translate(-3 -23.913)"/>
    </g>
  </g>
</svg>
