<svg xmlns="http://www.w3.org/2000/svg" width="24.776" height="25.587" viewBox="0 0 24.776 25.587">
  <g id="noun_notification_887294" transform="matrix(0.914, 0.407, -0.407, 0.914, 8.082, 0.001)" opacity="0.6">
    <g id="Group_2446" data-name="Group 2446" transform="translate(0 -0.001)">
      <path id="Path_2195" data-name="Path 2195" d="M16.4,24.142a2.434,2.434,0,1,1-4.658.945l4.05-1.776A2.42,2.42,0,0,1,16.4,24.142Z" transform="translate(-3.304 -6.558)"/>
      <path id="Path_2196" data-name="Path 2196" d="M.592,11.148A6.816,6.816,0,0,1,1.739,3.741a2.163,2.163,0,0,1-.195-.332A2.433,2.433,0,0,1,6,1.456a2.22,2.22,0,0,1,.109.357A7.15,7.15,0,0,1,12.517,5.97s1.955,4.489,4.1,4.847c.066,0,1.218.032,1.57.872.331.794-.351,1.857-1.537,2.368L3.8,19.593c-1.185.511-2.494.306-2.775-.507a1.8,1.8,0,0,1,.388-1.613C2.629,15.611.592,11.148.592,11.148Z" transform="translate(0 0.001)"/>
    </g>
  </g>
</svg>
