<svg xmlns="http://www.w3.org/2000/svg" width="17.643" height="21.19" viewBox="0 0 17.643 21.19">
  <path id="Path_4776" data-name="Path 4776" d="M3.29,7.3A3.281,3.281,0,0,1,5.68,8.335c1.847-1.329,3.694-2.67,5.565-3.966a3.293,3.293,0,1,1,.4.784C9.812,6.428,8,7.739,6.19,9.041a3.292,3.292,0,0,1-.1,3.275l5.526,3.753a3.275,3.275,0,1,1-.388.789L5.541,12.993A3.29,3.29,0,1,1,3.29,7.3Zm11.063,8.179A2.416,2.416,0,1,0,16.768,17.9a2.415,2.415,0,0,0-2.416-2.416Zm0-14.61A2.416,2.416,0,1,0,16.768,3.29,2.415,2.415,0,0,0,14.353.874ZM3.29,8.18a2.416,2.416,0,1,0,2.416,2.415A2.415,2.415,0,0,0,3.29,8.18Z" transform="translate(0 0)"/>
</svg>
