<svg xmlns="http://www.w3.org/2000/svg" width="22.334" height="21.414" viewBox="0 0 22.334 21.414">
  <path id="Path_2238" data-name="Path 2238" d="M37.624,25.646l-5.539-.8a.815.815,0,0,1-.613-.446l-2.492-5.034a1.134,1.134,0,0,0-1.023-.652h0a1.131,1.131,0,0,0-1.023.652l-2.483,5.027a.815.815,0,0,1-.613.446l-5.548.811a1.14,1.14,0,0,0-.632,1.955l4.014,3.91a.815.815,0,0,1,.235.72l-.948,5.539a1.14,1.14,0,0,0,1.655,1.2l4.965-2.606a.815.815,0,0,1,.759,0L33.3,38.972a1.14,1.14,0,0,0,1.655-1.2l-.948-5.539a.815.815,0,0,1,.231-.72l4.014-3.91a1.14,1.14,0,0,0-.632-1.955Z" transform="translate(-16.791 -18.21)" fill="none" stroke="#000" stroke-width="1"/>
</svg>
